<?xml version="1.0" encoding="utf-8"?>
<!-- Generator: Adobe Illustrator 25.0.0, SVG Export Plug-In . SVG Version: 6.00 Build 0)  -->
<svg version="1.1" id="Layer_1" xmlns="http://www.w3.org/2000/svg" xmlns:xlink="http://www.w3.org/1999/xlink" x="0px" y="0px"
	 viewBox="0 0 2160 2160" style="enable-background:new 0 0 2160 2160;" xml:space="preserve">
<style type="text/css">
	.st0{fill:#FEFEFE;}
	.st1{fill:#EB1C24;}
	.st2{fill:#020202;}
	.st3{fill:#040404;}
	.st4{fill:#030303;}
	.st5{fill:#050505;}
	.st6{fill:#060606;}
	.st7{fill:#070707;}
	.st8{fill:#0E0E0E;}
	.st9{fill:#D1D1D1;}
	.st10{fill:#EEEEEE;}
	.st11{fill:#F8F8F8;}
	.st12{fill:#E8E8E8;}
	.st13{fill:#FEFDFD;}
	.st14{fill:#EB171F;}
	.st15{fill:#EA141C;}
	.st16{fill:#F9F9F9;}
	.st17{fill:#F6F6F6;}
	.st18{fill:#FAFAFA;}
	.st19{fill:#F5F5F5;}
	.st20{fill:#F4F4F4;}
	.st21{fill:#C1C1C1;}
	.st22{fill:#EB1D25;}
	.st23{fill:#EA131B;}
	.st24{fill:#ED3239;}
</style>
<path class="st0" d="M1080,1417c-352.6,0-705.3-0.2-1057.9,0.5c-18.5,0-22.2-3.6-22.1-21.9C0.8,1184.3,0.8,973,0.1,761.7
	c-0.1-16,3.2-19.2,19.3-19.2c707.1,0.5,1414.2,0.5,2121.2,0c16.1,0,19.4,3.2,19.3,19.2c-0.7,212.2-0.7,424.4,0,636.6
	c0.1,16-3.2,19.2-19.3,19.2C1787.1,1416.8,1433.6,1417,1080,1417z"/>
<path class="st1" d="M497.1,1083.8c0,33.8,0.4,67.7-0.1,101.5c-0.7,56.7-41.7,97.4-99,97.8c-68.3,0.5-136.6,0.4-204.9,0
	c-59.1-0.3-100.3-40.7-100.7-98.8c-0.4-67.7-0.4-135.4,0-203.1c0.3-58.3,41.4-98.8,100.4-99.2c67.4-0.4,134.8-0.3,202.2,0
	c60.8,0.2,101.6,40.4,102.1,100.2C497.3,1016.1,497.1,1050,497.1,1083.8z"/>
<path class="st2" d="M580,994.2c28.6,0,57.2,0,85.7,0c25.3,0,49,3.8,59.9,30.7c10.2,25.2-3.5,42.2-24.1,56.8
	c26.9,10.2,38.2,28.1,33.8,54.4c-4.3,26.1-23.5,36.9-47.1,40.1c-29.2,4-64.2,12.7-86.1-2.6c-15.5-10.8-3.4-46.7-4.4-71.4
	c-0.7-17.7-0.5-35.5,0-53.3c0.6-19.7,2.3-39.4-22.9-49.9C576.5,997.5,578.3,995.9,580,994.2z"/>
<path class="st3" d="M1726.2,1065.5c-3.6-28.6,10-56.9-18.5-75.7c2-1.5,2.6-2.4,3.3-2.4c46.6-3.8,46.6-3.8,46.6,42.2
	c0,43.6,0.1,87.2-0.1,130.9c0,6.6,2.9,15.8-6.9,17.8c-7.3,1.5-17.6,4-21-6.1c-3.8-11-7.1-5-12.5-1.9c-31.1,18-62.6,14.2-82.4-9.5
	c-20.3-24.3-20.1-64.8,0.4-89.1c19.6-23.2,49.7-27.3,80.3-10.9C1717.6,1062,1719.9,1062.8,1726.2,1065.5z"/>
<path class="st4" d="M1037.7,1067.5c-5.3-28.9,9.6-57-15.9-78.2c47-7.1,47-7.1,47,36.9c0,45.5-0.7,90.9,0.3,136.4
	c0.4,18.9-16.3,21.6-21.3,15c-14-18.4-22.6-3.2-33.2,0.9c-24.4,9.4-54.4,1.2-70.4-19.4c-18.7-23.9-18.8-60.6-0.2-84.9
	c16.3-21.4,47.2-29.5,72.8-18.7C1022.3,1057.7,1027.3,1061.5,1037.7,1067.5z"/>
<path class="st5" d="M1814.7,1127.6c13.4,30.4,22,32.5,83.4,23.3c-7.9,27.4-16.8,33-50.7,30.9c-28.1-1.8-50.4-13.3-61.3-40.3
	c-9.7-24.1-6.9-47.7,9.8-67.9c18.5-22.5,43.9-26.4,71-20.4c27,6,46.3,35.2,44.6,62.5c-0.8,12.1-7.4,12-15.9,11.9
	C1869,1127.5,1842.4,1127.6,1814.7,1127.6z"/>
<path class="st5" d="M1212.3,1148.9c-13.5,31.1-28.6,38.5-64.8,31.9c-32.6-6-54.6-30.7-55.7-62.6c-1-30.5,17.6-56.8,45.8-64.7
	c43.4-12.2,81.9,14.5,83.7,57.3c0.5,12.3-2.1,17.6-15.8,17.1c-25.9-0.9-51.9-0.3-78.2-0.3C1136.2,1158.1,1152.7,1162,1212.3,1148.9z
	"/>
<path class="st5" d="M1351.6,1127.6c17,30.2,34.5,34.3,84.4,22.9c-2.7,22.7-16.1,30.5-37.3,31.4c-56.2,2.6-91.7-38.3-75.8-88
	c9.5-29.7,38-46.4,72.3-42.5c31.4,3.6,50.5,24.9,53.7,57c1.6,16-4,20.1-19.2,19.5C1404.8,1126.8,1379.7,1127.6,1351.6,1127.6z"/>
<path class="st3" d="M1460.3,1055.5c16.2,5.6,36.7-15.5,48,9.3c2.6,5.7,8.2-2.6,12.1-4.8c38.5-21.8,73.4-3.9,76,39.9
	c1.2,20.4-0.2,41,0.5,61.4c0.4,11.8-2.1,18-15.9,18.1c-13.4,0.2-17.1-4.8-16.6-17.2c0.7-17.8,0.6-35.6,0-53.4
	c-0.6-16.8-6.3-29.9-26.7-29.5c-19.3,0.3-27.2,12.1-28.1,29.2c-0.9,17.8-0.9,35.6-0.3,53.4c0.4,12.1-3.3,17.5-16.7,17.6
	c-14.4,0-15.8-7.3-15.6-18.5c0.4-22.3,0.2-44.5,0.1-66.8C1477,1079.7,1478.3,1064.8,1460.3,1055.5z"/>
<path class="st3" d="M1221.3,1055.5c25.6,2,31.1-8.1,31.1-28.9c0-32.7,30.8-52.4,62.5-43.2c13.6,3.9,12,15.1,13.5,25.3
	c-38.7-0.7-44.8,3.6-44.7,28.9c0.1,10.9,2.4,17.2,14.8,15.5c9.7-1.3,14.9,1.6,14.6,12.8c-0.3,9.6-2.1,15.9-13.4,14.1
	c-17-2.7-16.1,8.3-15.9,19.6c0.3,19.6-0.1,39.2,0.2,58.8c0.1,11.1,1.5,20.6-15.5,21.1c-18.8,0.6-17.2-10.3-17-22.2
	c0.2-9.8-0.2-19.6,0.1-29.4C1252.4,1100.4,1256.7,1071.6,1221.3,1055.5z"/>
<path class="st6" d="M815.5,1056c24,2.1,34.8-7.1,37.8-26.5c1.2-7.9,5.5-12.8,14.5-12.3c11.1,0.6,10,8.9,9.2,15.6
	c-1.9,15.9,3.2,23.6,20.4,20.9c9.5-1.5,14.6,1.8,14.9,12.9c0.4,13-6.2,15.3-16.5,13.8c-16.4-2.4-20.1,5.8-18.8,19.9
	c0.8,7.9,0.8,16,0,24c-2.3,24.9,6.7,37.9,35,31.2c-4.3,18.4-13,28.2-31.9,26c-18.2-2.2-29.8-11.4-33-29.5c-1.4-7.8-1.9-15.9-2-23.8
	C845.1,1100.9,851.7,1071.7,815.5,1056z"/>
<path class="st6" d="M1919.9,1055c17.5,4.7,36.5-12.8,50.7,7.8c4.1,6,10.5-5.4,16.3-8c20.7-9,32.2-4.2,31.7,13.6
	c-0.2,8.3-1.2,13.1-11.7,12.5c-29.7-1.5-39.4,15.6-38.3,42.3c0.5,12.5-0.6,25,0.3,37.4c1,13.7-3.5,18.9-18,18.9
	c-15.8,0-14.3-9.5-14.3-19.4c0.1-20.5-0.1-41,0.1-61.5C1936.8,1082.4,1938.2,1065.9,1919.9,1055z"/>
<path class="st7" d="M752.5,1056.1c6-2,6.8-2.5,7.7-2.6c40.1-1.1,40.1-1.1,40.1,37.8c0,23.9-0.3,47.9,0.1,71.8
	c0.2,10.4-1.7,16.7-14.5,16.2c-11.2-0.4-18.8-1.4-18.2-15.7c1-23,0-46.1,0.4-69.1C768.4,1080.2,769.3,1066.1,752.5,1056.1z"/>
<path class="st8" d="M785.7,993c11,1.2,19.1,6.1,19.2,18c0.1,13.3-9.2,19.3-20.9,19c-12.1-0.3-20.4-7.8-19.1-20.7
	C766,997.9,774.3,992.9,785.7,993z"/>
<path class="st9" d="M2013.9,983.7c9.4-0.6,18.6-0.2,26.7,5.4c3.5,10.7-2.1,16.4-11.3,20.2c-3,0.6-6,0.6-9,0
	C2006.6,1003.6,2007.5,994.3,2013.9,983.7z"/>
<path class="st10" d="M2030,1005.1c3.5-5.3,7.1-10.6,10.6-15.9c13.7,12.5,12.3,20.6-5.3,31.9c-5.1-1.4-7.6-5-8.3-10
	C2027.2,1008.7,2028.2,1006.7,2030,1005.1z"/>
<path class="st11" d="M2013.9,983.7c1.2,8.3-4.1,19.8,10.7,21.4c1.4,1.2,2,2.6,1.9,4c-0.1,1.5-0.4,2.3-0.7,2.3
	c-4.8,5-8.1,12.6-17.4,9.5C1996.4,1006.5,2000.1,994.4,2013.9,983.7z"/>
<path class="st12" d="M2008.3,1021c5.7-3.1,8-11.4,16.3-10.5c1.8-2.1,3.6-2.1,5.4,0c1.8,3.5,3.5,7.1,5.3,10.6
	C2026.3,1035.6,2017.3,1035.5,2008.3,1021z"/>
<path class="st13" d="M216.3,1005.1c2.4-18.2-18.1-20.2-25.5-37.4c50.4,2.2,99.2-5.8,147,4.8c49,10.9,61.9,61,26,95.9
	c-10.6,10.3-9.4,13.2,2.5,20.1c22.4,13,30.9,34,27.3,59.2c-3.7,26.5-19.9,43.7-45.4,50.6c-43.1,11.5-87.2,6.1-131,4.7
	c-7.7-16.9-3.3-34.8-3.2-52.1C214.7,1102.1,210.7,1053.5,216.3,1005.1z"/>
<path class="st14" d="M216.3,1005.1c0.3,65.9,0.7,131.8,1,197.7c-6.6-3.7-6.3-10.1-6.3-16.3c0-55.7,0-111.4,0-167.1
	C211.1,1014,211.6,1008.8,216.3,1005.1z"/>
<path class="st15" d="M222.1,1209.8c33.7,0,67.4,0,101.1,0c0,0.8,0,1.5,0,2.3c-33.7,0-67.4,0-101.1,0
	C222.1,1211.3,222.1,1210.5,222.1,1209.8z"/>
<path class="st16" d="M652.3,1151.2c-23.2,6.8-20.1-10.9-21.7-29c-2-22.9,7.9-27.7,27.4-25c7.1,1,14.3,0.8,21.3,1.9
	c13.7,2.1,23.4,8.5,23.4,24.1c0,16.4-9.8,23.9-24.7,26.3C671.1,1150.5,663.9,1150.4,652.3,1151.2z"/>
<path class="st17" d="M652.1,1069.3c-17.7,4.7-22.1-4.5-21.3-22.5c0.6-15.4-0.5-27.9,21.6-25c18.3,2.3,42.1-1.5,42.1,24.4
	C694.4,1070.1,672.5,1069.4,652.1,1069.3z"/>
<path class="st18" d="M1726.8,1116.9c-0.4,20.7-16.8,36.8-37.7,36.9c-22.1,0-38.3-17.1-37.3-39.4c0.9-21.2,16.9-35.8,38.5-35.2
	C1711.2,1079.8,1727.2,1096.4,1726.8,1116.9z"/>
<path class="st18" d="M1037.2,1115.9c0.2,21.1-15.2,37.3-36.2,38c-21.5,0.7-39.4-16.9-38.9-38.3c0.5-20.8,16.9-36.4,37.9-36.3
	C1021.4,1079.3,1037,1094.7,1037.2,1115.9z"/>
<path class="st19" d="M1846,1105.1c-9.4-6.8-28.6,8.1-29.4-10.2c-0.6-13.5,14.8-20.7,30-20.6c15.1,0.1,30.7,6.5,29.7,20.6
	C1875,1112.4,1856.1,1098.9,1846,1105.1z"/>
<path class="st20" d="M1158.2,1105.6c-11.6-5.8-29.9,5.8-31-8.9c-1.2-15,14.5-22.9,30.8-22.5c14.6,0.3,30.4,6,29.1,20.9
	C1185.3,1114.7,1165.8,1096.4,1158.2,1105.6z"/>
<path class="st17" d="M1384.3,1104.8c-10-5.2-27.8,6.7-29.4-8c-1.6-15.6,14.3-22.7,30.1-22.5c14.3,0.1,30.2,5.5,29,20.4
	C1412.6,1112.7,1393.9,1098.7,1384.3,1104.8z"/>
<path class="st21" d="M2030,1010.4c-1.8,0-3.6,0-5.4,0c0-1.8,0-3.6,0-5.3c1.8,0,3.6,0,5.4,0C2030,1006.8,2030,1008.6,2030,1010.4z"
	/>
<path class="st22" d="M265,1165.7c-9.5-18.2-2.3-37.6-4.1-56.4c-0.4-3.7,1.6-7.6,5.6-7.6c24.7-0.2,50.5-6.3,73.4,7.3
	c12.2,7.2,13.9,20.6,10.5,33.2c-4,15.4-14.8,23.6-31.4,23.1c-2.3-1.3-4.7-2.8-7.5-2.4c-46.4,6.8-44.7,6-43-48.7
	C265.7,1133.7,270.9,1150.1,265,1165.7z"/>
<path class="st22" d="M270.3,1063.3c-21.1-13.7-8.3-34.2-8.4-51c-0.1-12.9,15.5-6.4,24.2-7.3c8.8-1,17.8-0.4,26.6,0.6
	c13.4,1.4,24.3,7.4,27.5,21.2c3.2,14.1,0.3,26.5-15.6,31.9c-16.1,5.3-32.7,1.1-48.9,2.5c-14.8-9.4-5.1-23.4-6.9-30.2
	c0.3-8.6-5.8-4.1-2.4-5.4c3.2,10.2-0.8,20.9,2.4,31.2c1.5,1.2,2.2,2.6,2.1,4.1C270.9,1062.5,270.7,1063.3,270.3,1063.3z"/>
<path class="st23" d="M265,1165.7c0-17.4,0-34.9,0-53.9c3.1,2,4.9,2.6,4.9,3.4c2.6,39.4,2.6,39.3,42.6,45.9c2.3,0.4,4.3,2.8,6.5,4.3
	C301,1169.2,283,1170.9,265,1165.7z"/>
<path class="st24" d="M270.4,1058.6c18.1,0,36.1,0,54.2,0.1c-17.4,10.2-36,4.8-54.3,4.6C270.4,1061.7,270.4,1060.2,270.4,1058.6
	L270.4,1058.6z"/>
<path class="st15" d="M270.4,1058.6c-10.6-13.3-3-28,0-42.2C270.4,1030.5,270.4,1044.5,270.4,1058.6
	C270.4,1058.6,270.4,1058.6,270.4,1058.6z"/>
</svg>
