<svg id="Layer_13" data-name="Layer 13" xmlns="http://www.w3.org/2000/svg" viewBox="0 0 62.35 49.89"><defs><style>.cls-1,.cls-2{fill:#231f20;}.cls-2{fill-rule:evenodd;}</style></defs><title>Algo</title><g id="Layer_12" data-name="Layer 12"><path class="cls-1" d="M45.82,15.64H19.1a2.75,2.75,0,0,0-2.74,2.75v20a2.75,2.75,0,0,0,2.74,2.75H45.82a2.75,2.75,0,0,0,2.75-2.75v-20A2.75,2.75,0,0,0,45.82,15.64Zm1.71,22.79a1.71,1.71,0,0,1-1.71,1.7H19.1a1.7,1.7,0,0,1-1.7-1.7V21.14H47.53V38.43Zm0-18.33H17.4V18.39a1.7,1.7,0,0,1,1.7-1.7H45.82a1.71,1.71,0,0,1,1.71,1.7Z"/><path class="cls-1" d="M20.22,17.87h-.56a.52.52,0,1,0,0,1h.56a.52.52,0,0,0,0-1Z"/><path class="cls-1" d="M22.44,17.87h-.55a.52.52,0,0,0,0,1h.55a.52.52,0,1,0,0-1Z"/><path class="cls-1" d="M24.67,17.87h-.56a.52.52,0,0,0,0,1h.56a.52.52,0,0,0,0-1Z"/><path class="cls-1" d="M24.81,30.64l3.59-4.11a.52.52,0,0,0,0-.74.51.51,0,0,0-.73.05l-3.9,4.45a.53.53,0,0,0,0,.69l3.9,4.45a.51.51,0,0,0,.39.18.48.48,0,0,0,.34-.13.51.51,0,0,0,0-.73Z"/><path class="cls-1" d="M41.21,30.29l-3.9-4.45a.52.52,0,0,0-.74-.05.53.53,0,0,0,0,.74l3.6,4.11-3.6,4.11a.52.52,0,0,0,0,.73.52.52,0,0,0,.74,0L41.21,31A.53.53,0,0,0,41.21,30.29Z"/><path class="cls-1" d="M34.89,25.15a.51.51,0,0,0-.68.28L29.76,36a.51.51,0,0,0,.27.68.54.54,0,0,0,.21,0,.53.53,0,0,0,.48-.32l4.45-10.58A.51.51,0,0,0,34.89,25.15Z"/></g><g id="Layer_9" data-name="Layer 9"><path class="cls-2" d="M58,10.28H6.92a2.46,2.46,0,0,0-2.46,2.46V44.08a2.46,2.46,0,0,0,2.46,2.46H28.45a.74.74,0,0,1,.74.74v3a.74.74,0,0,1-.74.74H23.86a.94.94,0,0,0,0,1.87H41.07a.94.94,0,0,0,0-1.87H36.48a.74.74,0,0,1-.74-.74v-3a.74.74,0,0,1,.74-.74H58a2.46,2.46,0,0,0,2.46-2.46V12.74A2.46,2.46,0,0,0,58,10.28Zm-.15,34.39H7.07a.74.74,0,0,1-.74-.74v-31a.74.74,0,0,1,.74-.74H57.86a.74.74,0,0,1,.74.74v31A.74.74,0,0,1,57.86,44.67Z"/></g></svg>