<svg xmlns="http://www.w3.org/2000/svg" fill="none" viewBox="0 0 62.35 49.89"><defs><style>.cls-1,.cls-2{fill:none;}.cls-1,.cls-2,.cls-3,.cls-4{stroke-miterlimit:10;}.cls-1,.cls-2,.cls-3{stroke-width:0.7px;}.cls-2{stroke-linecap:round;}.cls-4{stroke-width:0.8px;}</style></defs><title>Algo</title><g id="Layer_1" data-name="Layer 1"><path class="cls-1" d="M12.71,16.38v24a1.42,1.42,0,0,0,1.19,1.2H50.18a1,1,0,0,0,1.11-.84h0V16.26c0-.46-.75-.72-1.34-.72H13.81a1,1,0,0,0-1.1.84Z" transform="translate(-0.83 -7.64)"/><line class="cls-1" x1="50.46" y1="13.67" x2="11.89" y2="13.67"/><line class="cls-2" x1="16.24" y1="15.84" x2="20" y2="15.84"/><path class="cls-2" d="M18.87,25.43h3.88" transform="translate(-0.83 -7.64)"/><line class="cls-2" x1="19.98" y1="19.53" x2="23.81" y2="19.53"/><line class="cls-2" x1="25.56" y1="19.53" x2="33.36" y2="19.53"/><line class="cls-2" x1="25.56" y1="21.55" x2="33.36" y2="21.55"/><line class="cls-2" x1="20" y1="21.55" x2="23.87" y2="21.55"/><line class="cls-2" x1="18.13" y1="23.54" x2="21.94" y2="23.54"/><line class="cls-2" x1="16.22" y1="25.47" x2="20.16" y2="25.47"/><line class="cls-2" x1="17.98" y1="27.24" x2="22.03" y2="27.24"/><line class="cls-2" x1="23.94" y1="27.24" x2="31.72" y2="27.24"/><line class="cls-2" x1="18.01" y1="29.25" x2="21.94" y2="29.25"/><line class="cls-2" x1="23.91" y1="29.32" x2="31.69" y2="29.32"/><line class="cls-2" x1="16.22" y1="31.26" x2="20" y2="31.26"/><circle class="cls-3" cx="14.73" cy="10.36" r="0.82"/><circle class="cls-3" cx="18.01" cy="10.36" r="0.82"/><circle class="cls-3" cx="21.37" cy="10.36" r="0.82"/><circle class="cls-3" cx="14.13" cy="15.95" r="0.69"/><circle class="cls-3" cx="14.13" cy="25.38" r="0.67"/><circle class="cls-3" cx="14.13" cy="31.26" r="0.67"/></g><g id="Layer_5" data-name="Layer 5"><path class="cls-4" d="M59.2,10.84H4.8a.28.28,0,0,0-.26.3V45.87a.28.28,0,0,0,.26.3H59.2v0a.28.28,0,0,0,.26-.3V11.14A.28.28,0,0,0,59.2,10.84Zm-.26.6V45.56H5.06V11.44Z" transform="translate(-0.83 -7.64)"/><path class="cls-4" d="M60.86,8H3.14A1.92,1.92,0,0,0,1.23,10V47.2a1.92,1.92,0,0,0,1.91,1.92h22a9.15,9.15,0,0,1-.93,4.39,3.5,3.5,0,0,1-.64.84l-.21.17,0,0H20.07a2,2,0,0,0-1.23.45,1.44,1.44,0,0,0-.61,1.12v.75a.26.26,0,0,0,.27.26h27a.26.26,0,0,0,.27-.26v-.75A1.44,1.44,0,0,0,45.16,55a2,2,0,0,0-1.23-.45H40.67a2.76,2.76,0,0,1-.91-1,9.14,9.14,0,0,1-.92-4.37h22a1.92,1.92,0,0,0,1.91-1.92V10A1.92,1.92,0,0,0,60.86,8Zm-16.93,47a1.58,1.58,0,0,1,.88.32.94.94,0,0,1,.43.73v.49H18.76v-.49a.94.94,0,0,1,.43-.73,1.58,1.58,0,0,1,.88-.32Zm-4.07-.52H24.14c.63-.68,1.5-2.21,1.55-5.42H38.31C38.36,52.33,39.23,53.86,39.86,54.54ZM62.25,47.2a1.4,1.4,0,0,1-1.39,1.39H3.14A1.4,1.4,0,0,1,1.75,47.2V10A1.4,1.4,0,0,1,3.14,8.56H60.86A1.4,1.4,0,0,1,62.25,10Z" transform="translate(-0.83 -7.64)"/></g></svg>