<?xml version="1.0" encoding="utf-8"?>
<!-- Generator: Adobe Illustrator 25.0.0, SVG Export Plug-In . SVG Version: 6.00 Build 0)  -->
<svg version="1.1" id="Layer_1" xmlns="http://www.w3.org/2000/svg" xmlns:xlink="http://www.w3.org/1999/xlink" x="0px" y="0px"
	 viewBox="0 0 2160 2160" style="enable-background:new 0 0 2160 2160;" xml:space="preserve">
<style type="text/css">
	.st0{fill:#FDFDFD;}
	.st1{fill:#FE043D;}
	.st2{fill:#FD023B;}
	.st3{fill:#333333;}
	.st4{fill:#313131;}
	.st5{fill:#343434;}
	.st6{fill:#323232;}
	.st7{fill:#F01345;}
	.st8{fill:#AE0228;}
	.st9{fill:#CB022F;}
	.st10{fill:#F72052;}
	.st11{fill:#B6042C;}
	.st12{fill:#BF022D;}
	.st13{fill:#AB0127;}
	.st14{fill:#D20232;}
	.st15{fill:#E80136;}
	.st16{fill:#F6F6F6;}
	.st17{fill:#E6E6E6;}
</style>
<path class="st0" d="M2160,1637c-720,0-1440,0-2160,0c0-371.3,0-742.7,0-1114c720,0,1440,0,2160,0C2160,894.3,2160,1265.7,2160,1637
	z M687.5,1232.1c11-6.3,22-12.6,32.9-18.9c4-2.2,8-4.5,12-6.7c7.5-6.3,15.1-12.6,22.6-18.8c2.2-9.5,6.3-19.1,6.3-28.6
	c0.5-80.9-0.5-161.9,0.7-242.8c0.4-25.1-9.9-39.4-31-51.1c-65.7-36.3-130.5-74-195.8-110.9c-31.7-17.9-43.2-11.6-43.6,24.3
	c-0.5,57.4,3.5,115-1.1,172c-4.8,59.2,7.2,104.7,68.5,126.3c0.7,1.9,1.4,3.9,2.1,5.8c0.2,14.4,0.4,28.8,0.6,43.2
	c0,8.3-0.1,16.5-0.1,24.8c-0.2,10.2-0.4,20.4-0.6,30.5c-0.7,29.3-2.6,58.6-1.7,87.8c0.6,21,12.9,29.8,33,19.1
	c17.8-9.4,34.7-20.7,52-31.1C658.7,1248.8,673.1,1240.5,687.5,1232.1z M422.7,1046c0-4.1-0.1-8.1-0.1-12.2c0-4.2,0.1-8.3,0.1-12.5
	c0.1-12.2,0.2-24.5,0.3-36.7c0.8-32.6,2.6-65.2,2-97.8c-0.5-27.2-13.8-34.2-38.3-20.7c-31.4,17.3-62,36-92.9,54.1l-0.3,0.3
	c-1.4-0.2-2.2,0.3-2.4,1.8c-10.8,6.2-21.6,12.5-32.4,18.7c-10.2,8.2-20.3,16.3-30.5,24.5c-2,5.6-5.8,11.1-5.8,16.7
	c-0.4,87.1-1.5,174.2,0.9,261.2c0.4,13.8,14.2,32.1,27,39.8c65.9,39.9,133.4,77.2,200.6,114.9c30.2,16.9,40.8,10.5,41.1-24.8
	c0.5-59.4-2.7-119,1-178.2c3.4-53.8-5-97.3-62.6-117c-2.6-0.9-4.4-4.2-6.5-6.4C423.3,1063.1,423,1054.6,422.7,1046z M1253.5,1182.7
	c1.6,2.3,3.3,4.7,4.9,7c-14.8,36.9-50.5,16.9-75.5,26.5c0,17.5,0,34.2,0,51.9c17.4,0,32.8,0.9,48-0.2c42.6-2.8,83.3-33.7,85.6-75.2
	c4-75.1,1.1-150.7,1.1-225.5c-18.7,0-35.5,0-53.9,0c0,39.2,0.3,76-0.1,112.8c-0.3,31.4-16.4,50.8-41.1,50.9
	c-24.7,0.1-41-19.4-41.4-50.6c-0.4-37.7-0.1-75.3-0.1-113.6c-20.2,0-37.1,0-55.8,0c0,37.6-0.2,73.3,0,109.1
	C1125.8,1156.4,1173.2,1195.8,1253.5,1182.7z M876.5,882.9c0,72.2-3.9,141.9,1.2,210.8c4.6,61.4,67.5,102.5,127.5,91
	c62.5-12,102.6-71.5,89.6-132.7c-12.8-60.1-76.7-99.3-137-83.8c-8.6,2.2-17,5.1-28.2,8.5c0-18,0-33.1,0-48.3c0-14.9,0-29.9,0-45.6
	C909.9,882.9,894.7,882.9,876.5,882.9z M1733.6,1093.9c11-59.5-26.1-113.6-83.6-126.7c-56.4-12.8-116.2,23.4-131.6,79.7
	c-14.9,54.4,17.2,115,70.9,133.7c54.6,19,114.2-6.8,137.3-65.8c-28.5,6.7-53,10.2-76,18.3c-35.4,12.5-69.2-2.4-78.8-39.1
	C1625.4,1093.9,1678.7,1093.9,1733.6,1093.9z M1712.9,1181.8c61.1,24.8,83.4-18.6,108.1-56.2c50.9,68,54.3,69.7,108.4,56.3
	c-24.8-35.6-49.3-70.8-73.7-105.9c24.9-36.4,48.9-71.4,75.4-110.1c-25.1,0-48.8-7-62.5,1.7c-19.4,12.2-31.4,36-49,57.9
	c-22.8-41.2-48.2-78.5-106.5-55.7c20.6,29.4,40.1,59.2,61.7,87.4c10.7,14,9.9,24-0.3,37.6C1753.2,1123,1733.5,1152.5,1712.9,1181.8z
	 M1539.5,1185.9c-26.3-24.6-34.7-60-76.3-59.8c-9.7,0-25.1-18.3-27.9-30.5c-5.5-23.1-3.8-48-5.1-73c25.2-1.6,49.7,3.1,66.7-6.1
	c16.6-8.9,25.5-31.9,40.8-52.9c-38,0-71.4,0-107.1,0c0-28.3,0-53.5,0-79.7c-19.4,0-36.2,0-55.5,0c0,27.2,0,52.4,0,77.2
	c-10.6,3.1-18.8,5.5-25.9,7.6c0,17.7,0,32.9,0,49.2c8.9,2.1,17.3,4,25.2,5.8C1367.8,1165.9,1418.5,1192.8,1539.5,1185.9z"/>
<path class="st1" d="M559.1,1076.9c-61.2-21.6-73.3-67.1-68.5-126.3c4.6-57,0.6-114.7,1.1-172c0.3-35.8,11.9-42.2,43.6-24.3
	c65.3,36.9,130.2,74.6,195.8,110.9c21.1,11.7,31.4,26,31,51.1c-1.2,80.9-0.2,161.9-0.7,242.8c-0.1,9.5-4.1,19.1-6.3,28.6
	c-22.2-12.8-44.2-26-66.7-38.4c-41.2-22.5-82.6-44.5-123.9-66.8C562.6,1080.7,560.9,1078.8,559.1,1076.9z"/>
<path class="st2" d="M423.6,1071.6c2.2,2.2,3.9,5.5,6.5,6.4c57.7,19.7,66,63.2,62.6,117c-3.7,59.2-0.5,118.8-1,178.2
	c-0.3,35.3-10.9,41.7-41.1,24.8c-67.2-37.7-134.7-75-200.6-114.9c-12.8-7.7-26.6-26-27-39.8c-2.4-87-1.3-174.1-0.9-261.2
	c0-5.6,3.8-11.1,5.8-16.7c14.5,6.7,29,13.4,43.6,20.1c49.6,28.1,99.3,56.2,148.9,84.2C421.6,1070.4,422.6,1071,423.6,1071.6z"/>
<path class="st3" d="M876.5,882.9c18.3,0,33.5,0,53.1,0c0,15.7,0,30.6,0,45.6c0,15.2,0,30.3,0,48.3c11.2-3.4,19.6-6.3,28.2-8.5
	c60.3-15.5,124.2,23.6,137,83.8c13,61.2-27.1,120.7-89.6,132.7c-60,11.5-123-29.5-127.5-91C872.5,1024.7,876.5,955.1,876.5,882.9z
	 M986.6,1131.2c29.8-0.6,54.3-25.7,54.2-55.7c-0.1-31.6-26-56-57.7-54.7c-29.8,1.3-54.6,27.6-53.3,56.6
	C931,1106.5,957.8,1131.8,986.6,1131.2z"/>
<path class="st4" d="M1253.5,1182.7c-80.3,13.1-127.7-26.3-128.2-106.8c-0.2-35.7,0-71.5,0-109.1c18.7,0,35.5,0,55.8,0
	c0,38.3-0.3,75.9,0.1,113.6c0.3,31.2,16.7,50.8,41.4,50.6c24.8-0.1,40.8-19.6,41.1-50.9c0.3-36.8,0.1-73.6,0.1-112.8
	c18.4,0,35.2,0,53.9,0c0,74.8,2.9,150.3-1.1,225.5c-2.2,41.5-43,72.3-85.6,75.2c-15.3,1-30.7,0.2-48,0.2c0-17.7,0-34.4,0-51.9
	c25-9.6,60.7,10.4,75.5-26.5c0.9-2.3,1.7-4.6,2.6-7C1258.5,1182.7,1256,1182.7,1253.5,1182.7z"/>
<path class="st5" d="M1733.6,1093.9c-54.9,0-108.2,0-161.9,0c9.7,36.7,43.5,51.6,78.8,39.1c23-8.1,47.5-11.6,76-18.3
	c-23.1,59-82.6,84.8-137.3,65.8c-53.7-18.6-85.8-79.3-70.9-133.7c15.4-56.3,75.2-92.5,131.6-79.7
	C1707.6,980.3,1744.7,1034.4,1733.6,1093.9z M1578.5,1042.7c32.8,0,65,0,99.4,0C1643.8,1003.1,1602.1,1003.9,1578.5,1042.7z"/>
<path class="st6" d="M1712.9,1181.8c20.6-29.3,40.3-58.9,61.7-87.2c10.2-13.5,11-23.6,0.3-37.6c-21.6-28.2-41.1-57.9-61.7-87.4
	c58.2-22.8,83.6,14.5,106.5,55.7c17.6-21.9,29.6-45.7,49-57.9c13.7-8.7,37.4-1.7,62.5-1.7c-26.5,38.8-50.5,73.7-75.4,110.1
	c24.5,35.2,48.9,70.3,73.7,105.9c-54.1,13.5-57.5,11.7-108.4-56.3C1796.3,1163.2,1774,1206.6,1712.9,1181.8z"/>
<path class="st3" d="M1539.5,1185.9c-121,6.9-171.7-20-165.2-162.2c-8-1.8-16.3-3.8-25.2-5.8c0-16.3,0-31.5,0-49.2
	c7.1-2.1,15.3-4.5,25.9-7.6c0-24.7,0-49.9,0-77.2c19.3,0,36.1,0,55.5,0c0,26.2,0,51.4,0,79.7c35.8,0,69.1,0,107.1,0
	c-15.3,21-24.2,44-40.8,52.9c-17,9.1-41.4,4.4-66.7,6.1c1.3,25-0.3,49.8,5.1,73c2.9,12.2,18.3,30.6,27.9,30.5
	C1504.8,1125.9,1513.2,1161.2,1539.5,1185.9z"/>
<path class="st7" d="M293.6,920.1c30.9-18.1,61.5-36.8,92.9-54.1c24.5-13.5,37.8-6.5,38.3,20.7c0.6,32.6-1.2,65.2-2,97.8
	c-5-5.8-8.8-14.3-15.1-17.1C370.1,951,331.8,935.8,293.6,920.1z"/>
<path class="st8" d="M564.4,1082.6c41.3,22.2,82.8,44.2,123.9,66.8c22.5,12.3,44.5,25.5,66.7,38.4c-7.5,6.3-15.1,12.6-22.6,18.8
	c-53.5-34-108.3-65.2-170.7-80.6c-0.2-14.4-0.4-28.8-0.6-43.2c0,0,1.7,0.6,1.7,0.6L564.4,1082.6z"/>
<path class="st9" d="M293.6,920.1c38.1,15.6,76.4,30.8,114.2,47.3c6.3,2.8,10.1,11.3,15.1,17.1c-0.1,12.2-0.2,24.5-0.3,36.7
	c-52.7-26.6-105.4-53.3-158.1-79.8c-1.7-0.8-4-0.4-6.1-0.6c10.8-6.2,21.6-12.5,32.4-18.7c1.2,0.9,2.4,1.8,3.5,2.7
	c-0.4-1.5-0.7-3-1.1-4.5L293.6,920.1z"/>
<path class="st10" d="M644.3,1257.1c-17.3,10.4-34.2,21.7-52,31.1c-20.1,10.7-32.3,1.9-33-19.1c-0.9-29.2,1-58.5,1.7-87.8
	c2.7,0.2,5.4,0.5,8.1,0.7c-0.1,1.9,0,3.7,0.1,5.6c4.8,10.1,7.1,23.3,15,29.7C602.9,1232.3,624.2,1244,644.3,1257.1z"/>
<path class="st11" d="M258.5,940.9c2,0.2,4.4-0.3,6.1,0.6c52.7,26.5,105.4,53.2,158.1,79.8c0,4.2-0.1,8.3-0.1,12.5
	c-33.7-13.7-67-28.4-101.3-40.5c-15.5-5.4-33-5.4-49.6-7.8c-14.5-6.7-29-13.4-43.6-20.1C238.2,957.3,248.3,949.1,258.5,940.9z"/>
<path class="st12" d="M561.8,1126c62.3,15.4,117.2,46.6,170.7,80.6c-4,2.2-8,4.5-12,6.7c-25.6-9.5-51.2-19.1-76.8-28.6
	c-24.7-9.2-49.4-18.5-74.2-27.8c-2.6-2-5.2-4.1-7.8-6.1C561.7,1142.5,561.7,1134.2,561.8,1126z"/>
<path class="st13" d="M271.6,985.5c16.6,2.4,34.1,2.4,49.6,7.8c34.3,12,67.6,26.8,101.3,40.5c0,4.1,0.1,8.1,0.1,12.2
	c-0.7,7.9-1.4,15.8-2.1,23.7C370.9,1041.7,321.2,1013.6,271.6,985.5z"/>
<path class="st14" d="M569.5,1156.9c24.7,9.3,49.4,18.5,74.2,27.8c25.6,9.6,51.2,19.1,76.8,28.6c-11,6.3-22,12.6-32.9,18.9
	c-29-11.7-57.8-23.7-86.9-35c-10.1-4-20.9-6.4-31.4-9.5c-0.1-1.9-0.1-3.7-0.1-5.6C569.3,1173.6,569.4,1165.2,569.5,1156.9z"/>
<path class="st15" d="M569.3,1187.6c10.5,3.1,21.2,5.5,31.4,9.5c29.1,11.3,58,23.3,86.9,35c-14.4,8.3-28.8,16.6-43.2,25
	c-20.2-13.1-41.5-24.8-60.1-39.8C576.4,1210.9,574.1,1197.7,569.3,1187.6z"/>
<path class="st15" d="M569.5,1156.9c-0.1,8.4-0.2,16.8-0.3,25.1c-2.7-0.2-5.4-0.5-8.1-0.7c0.2-10.2,0.4-20.4,0.6-30.5
	C564.3,1152.8,566.9,1154.8,569.5,1156.9z"/>
<path class="st11" d="M420.5,1069.8c0.7-7.9,1.4-15.8,2.1-23.7c0.3,8.5,0.7,17.1,1,25.6C422.6,1071,421.6,1070.4,420.5,1069.8z"/>
<path class="st7" d="M293.3,920.5c0.4,1.5,0.7,3,1.1,4.5c-1.2-0.9-2.4-1.8-3.5-2.7C291.1,920.8,291.9,920.2,293.3,920.5z"/>
<path class="st10" d="M564.4,1082.6l-1.6,0.7c0,0-1.7-0.5-1.7-0.6c-0.7-1.9-1.4-3.9-2.1-5.8C560.9,1078.8,562.6,1080.7,564.4,1082.6
	z"/>
<path class="st16" d="M986.6,1131.2c-28.9,0.6-55.7-24.8-56.9-53.8c-1.2-29.1,23.5-55.4,53.3-56.6c31.7-1.4,57.6,23.1,57.7,54.7
	C1040.9,1105.5,1016.5,1130.6,986.6,1131.2z"/>
<path class="st0" d="M1253.5,1182.7c2.5,0,5,0,7.5,0.1c-0.9,2.3-1.7,4.6-2.6,7C1256.8,1187.4,1255.2,1185,1253.5,1182.7z"/>
<path class="st17" d="M1578.5,1042.7c23.7-38.8,65.3-39.7,99.4,0C1643.5,1042.7,1611.2,1042.7,1578.5,1042.7z"/>
</svg>
