<svg id="ctf_v1" data-name="ctf v1" xmlns="http://www.w3.org/2000/svg" viewBox="0 0 63.04 40.6"><defs><style>.cls-1{fill:#231f20;}</style></defs><title>CTF</title><g id="Layer_11" data-name="Layer 11"><g id="Layer_9" data-name="Layer 9"><path class="cls-1" d="M63.25,22a.84.84,0,0,0-.73-.34,17.29,17.29,0,0,1-12.11-4,19,19,0,0,0-13.28-4.43.9.9,0,0,0-.79.6L34.2,20.17a5.94,5.94,0,0,1,1.66.52l1.94-5.82a17.2,17.2,0,0,1,11.51,4.05,18.83,18.83,0,0,0,12,4.45l-5,15.13a17.26,17.26,0,0,1-11.51-4.06c-.14-.12-.29-.22-.44-.33a11.57,11.57,0,0,1-.28,2,19.24,19.24,0,0,0,5.84,3.2,19.47,19.47,0,0,0,7.07.94.87.87,0,0,0,.78-.59l5.62-16.86A.88.88,0,0,0,63.25,22Z"/><path class="cls-1" d="M38.41,10.31a1,1,0,0,0-1.19.69l-3.06,9.16a6.18,6.18,0,0,1,1.74.54l3-9.12A1,1,0,0,0,38.41,10.31Z"/><path class="cls-1" d="M26.09,44.38l-3,9a.92.92,0,1,0,1.73.57L27.7,45.3A7.08,7.08,0,0,1,26.09,44.38Z"/></g><g id="Layer_10" data-name="Layer 10"><path class="cls-1" d="M28.81,13.75a.87.87,0,0,0-.78-.6,19,19,0,0,0-13.28,4.43,17.3,17.3,0,0,1-12.11,4,.84.84,0,0,0-.73.34.88.88,0,0,0-.13.8L7.4,39.62a.87.87,0,0,0,.78.59,19.47,19.47,0,0,0,7.07-.94A19.35,19.35,0,0,0,21,36.15a11.93,11.93,0,0,1-.45-1.83l-.16.12A17.26,17.26,0,0,1,8.86,38.5l-5-15.13a18.83,18.83,0,0,0,12-4.45,17.2,17.2,0,0,1,11.51-4.05l1.9,5.71a4,4,0,0,1,1.15-1,2.71,2.71,0,0,1,.3-.13Z"/><path class="cls-1" d="M30.41,19.57a3.49,3.49,0,0,1,.34-.15L27.94,11a.92.92,0,1,0-1.72.58l3,9A4.06,4.06,0,0,1,30.41,19.57Z"/><path class="cls-1" d="M42.06,53.34l-3-8.89a5,5,0,0,1-1.55,1.07l2.79,8.39a.92.92,0,1,0,1.73-.57Z"/></g></g><g id="Layer_2" data-name="Layer 2"><path class="cls-1" d="M45.36,25.61c0-.83,0-1.63,0-2.39a1.09,1.09,0,0,0-1.1-1.09C39.56,22.16,36,20.85,33,18a1.09,1.09,0,0,0-1.52,0c-2.94,2.89-6.47,4.25-11.12,4.28a1.09,1.09,0,0,0-1.09,1.1c0,.76,0,1.56,0,2.4-.1,7.81-.24,18.51,12.81,22.94a1.13,1.13,0,0,0,.36.06,1,1,0,0,0,.35-.06C45.82,44.12,45.55,33.43,45.36,25.61ZM32.45,46.54c-11.19-4-11.08-12.88-11-20.74,0-.47,0-.92,0-1.37a16.81,16.81,0,0,0,10.8-4.17,16.76,16.76,0,0,0,10.86,4q0,.67,0,1.38C43.38,33.52,43.6,42.41,32.45,46.54Z"/></g><g id="Layer_3" data-name="Layer 3"><path class="cls-1" d="M36.62,32.46H35.45V30.13a3.11,3.11,0,1,0-6.21,0v2.33H28.07a.39.39,0,0,0-.39.39v6.21a.39.39,0,0,0,.39.39h8.55a.38.38,0,0,0,.38-.39V32.85A.38.38,0,0,0,36.62,32.46ZM30,30.13a2.33,2.33,0,1,1,4.66,0v2.33h-.38V30.13a1.95,1.95,0,0,0-3.89,0v2.33H30Zm1.17,2.33V30.13a1.17,1.17,0,1,1,2.33,0v2.33Zm5,6.21H28.46V33.24h7.77Z"/><path class="cls-1" d="M32.34,34.4a.77.77,0,0,0-.77.78.79.79,0,0,0,.38.67v.88a.39.39,0,0,0,.39.39.38.38,0,0,0,.39-.39v-.88a.79.79,0,0,0,.39-.67A.78.78,0,0,0,32.34,34.4Z"/></g></svg>