<svg id="ctf_v1" data-name="ctf v1" fill="none" xmlns="http://www.w3.org/2000/svg" viewBox="0 0 63.04 40.6"><defs><style>.cls-1{stroke-miterlimit:10;stroke-width:0.5px;}</style></defs><title>CTF</title><g id="Layer_5" data-name="Layer 5"><path class="cls-1" d="M36.87,18.08l2.83-7.9c0-.08-.13-.2-.36-.29s-.43-.08-.45,0L36.05,17.8C36.33,17.88,36.6,18,36.87,18.08Z" transform="translate(-0.5 -9.58)"/><path class="cls-1" d="M37.09,18.18l2.86-8c0-.08-.13-.21-.35-.29s-.43-.08-.46,0l-2.86,8A7.94,7.94,0,0,1,37.09,18.18Z" transform="translate(-0.5 -9.58)"/><path class="cls-1" d="M25.44,46.53l-1.1,3.07s.17.14.42.22.45.13.46.09L26.27,47A4.36,4.36,0,0,1,25.44,46.53Z" transform="translate(-0.5 -9.58)"/><path class="cls-1" d="M63.24,21.14a.46.46,0,0,0-.29-.22,53.94,53.94,0,0,1-10.62-4.07c-4.43-2.06-9-4.2-13.83-4.68a.43.43,0,0,0-.45.29l-1.93,5.36.82.29,1.8-5c4.55.52,9,2.58,13.23,4.56a57.23,57.23,0,0,0,10.32,4l-5,14a10.2,10.2,0,0,1-6.62-1.78l-.44-.28c-.95-.62-1.95-1.23-3-1.85l-.32-.18c0,.33-.07.66-.13,1l3,1.76.45.28A14.48,14.48,0,0,0,53,35.9a9.31,9.31,0,0,0,4.73.51.43.43,0,0,0,.33-.28l5.24-14.64A.39.39,0,0,0,63.24,21.14Z" transform="translate(-0.5 -9.58)"/><path class="cls-1" d="M57.61,36h0Z" transform="translate(-0.5 -9.58)"/></g><g id="Layer_4" data-name="Layer 4"><path class="cls-1" d="M28,17.9l-2.87-8c0-.08-.23-.08-.45,0s-.39.21-.36.29l2.87,8A6.56,6.56,0,0,1,28,17.9Z" transform="translate(-0.5 -9.58)"/><path class="cls-1" d="M38.08,47.13l1,2.78s.22,0,.46-.09.43-.18.42-.22l-1-2.89Z" transform="translate(-0.5 -9.58)"/><path class="cls-1" d="M26,12.45a.43.43,0,0,0-.45-.28c-4.81.48-9.4,2.61-13.84,4.68A54.24,54.24,0,0,1,1.09,20.92a.42.42,0,0,0-.29.21.45.45,0,0,0,0,.36L6,36.13a.43.43,0,0,0,.33.28,9.32,9.32,0,0,0,4.73-.52,13.9,13.9,0,0,0,2.74-1.35l.45-.28,3.41-2a8.59,8.59,0,0,1-.09-1l-.79.46c-1,.62-2,1.23-3,1.84l-.44.28A10.28,10.28,0,0,1,6.75,35.6l-5-14a57.52,57.52,0,0,0,10.32-4c4.27-2,8.68-4,13.22-4.57l1.85,5.16a6.64,6.64,0,0,1,.81-.3Z" transform="translate(-0.5 -9.58)"/><path class="cls-1" d="M6.42,36h0Z" transform="translate(-0.5 -9.58)"/></g><g id="Layer_2" data-name="Layer 2"><path class="cls-2" d="M45.58,24.93c0-.86,0-1.68,0-2.47a1.12,1.12,0,0,0-1.12-1.11C39.62,21.38,36,20,32.92,17.1a1.11,1.11,0,0,0-1.56,0c-3,3-6.66,4.36-11.44,4.39a1.12,1.12,0,0,0-1.11,1.13c0,.79,0,1.6,0,2.47-.1,8-.24,19,13.17,23.59a1.19,1.19,0,0,0,.37.06.94.94,0,0,0,.37-.07C46.06,44,45.78,33,45.58,24.93ZM32.32,46.44C20.81,42.34,20.92,33.2,21,25.13c0-.49,0-1,0-1.42a17.29,17.29,0,0,0,11.11-4.29,17.23,17.23,0,0,0,11.16,4.15c0,.46,0,.93,0,1.42C43.55,33.06,43.78,42.2,32.32,46.44Z" transform="translate(-0.5 -9.58)"/></g><g id="Layer_3" data-name="Layer 3"><path class="cls-2" d="M36.6,32H35.4v-2.4a3.2,3.2,0,0,0-6.39,0V32h-1.2a.4.4,0,0,0-.4.4v6.39a.4.4,0,0,0,.4.4H36.6a.39.39,0,0,0,.39-.4V32.37A.39.39,0,0,0,36.6,32Zm-6.79-2.4a2.4,2.4,0,0,1,4.79,0V32h-.4v-2.4a2,2,0,0,0-4,0V32h-.4ZM31,32v-2.4a1.2,1.2,0,1,1,2.4,0V32Zm5.2,6.39h-8V32.77h8Z" transform="translate(-0.5 -9.58)"/><path class="cls-2" d="M32.2,34a.8.8,0,0,0-.8.8.81.81,0,0,0,.4.69v.91a.4.4,0,0,0,.8,0v-.91a.79.79,0,0,0,.4-.69A.8.8,0,0,0,32.2,34Z" transform="translate(-0.5 -9.58)"/></g></svg>