<svg id="GAME_DEV_V1" data-name="GAME DEV V1" xmlns="http://www.w3.org/2000/svg" viewBox="0 0 44.37 60.25"><defs><style>.cls-2{stroke-miterlimit:10;stroke-width:0.5px;}</style></defs><title>Game_Dev</title><g id="Layer_1" data-name="Layer 1"><rect class="cls-1" x="21.3" y="11.98" width="1.97" height="22.12" transform="translate(-17.35 34.3) rotate(-70.56)"/><path class="cls-1" d="M12.34,3.84H32V39.19h2V3.6a1.48,1.48,0,0,0-1.43-1.52H11.92A1.48,1.48,0,0,0,10.49,3.6V59.23a1.48,1.48,0,0,0,1.43,1.52H22.56V59H12.34Z" transform="translate(-10.49 -2.08)"/><path class="cls-1" d="M22.28,32a5.57,5.57,0,1,0,5.57,5.56A5.56,5.56,0,0,0,22.28,32Zm0,9.12a3.56,3.56,0,1,1,3.56-3.56A3.56,3.56,0,0,1,22.28,41.12Z" transform="translate(-10.49 -2.08)"/><path class="cls-2" d="M22.54,10.48a3.35,3.35,0,1,0,3.34,3.35A3.35,3.35,0,0,0,22.54,10.48Zm0,5.49a2.14,2.14,0,1,1,2.14-2.14A2.14,2.14,0,0,1,22.53,16Z" transform="translate(-10.49 -2.08)"/></g><g id="Layer_2" data-name="Layer 2"><path class="cls-1" d="M49,48.2a.7.7,0,1,0,.7.7A.7.7,0,0,0,49,48.2Z" transform="translate(-10.49 -2.08)"/><path class="cls-1" d="M47.69,46.87a.7.7,0,1,0,.7.7A.7.7,0,0,0,47.69,46.87Z" transform="translate(-10.49 -2.08)"/><path class="cls-1" d="M47.69,49.53a.7.7,0,1,0,.7.7A.7.7,0,0,0,47.69,49.53Z" transform="translate(-10.49 -2.08)"/><path class="cls-1" d="M46.36,48.2a.7.7,0,1,0,.7.7A.7.7,0,0,0,46.36,48.2Z" transform="translate(-10.49 -2.08)"/><path class="cls-1" d="M54.79,56.27a35.08,35.08,0,0,0-1.16-5.79.7.7,0,0,0-1.35.38,34.22,34.22,0,0,1,1.12,5.56c.2,1.89-.13,3.33-.94,4.16a1.1,1.1,0,0,1-.84.34,1.13,1.13,0,0,1-.83-.37c-2.57-2.83-4.57-4.26-5.95-4.26H34.34c-1.38,0-3.38,1.43-6,4.26a1.13,1.13,0,0,1-.83.37,1.1,1.1,0,0,1-.84-.34c-.81-.83-1.14-2.27-.93-4.16a39,39,0,0,1,2.32-9.23,2.73,2.73,0,0,1,1.1-1.34l.27-.14a19.82,19.82,0,0,1,6.61-1.6c1.1-.1,2.28-.16,3.5-.16s2.4.06,3.5.16a19.82,19.82,0,0,1,6.61,1.6,2.29,2.29,0,0,1,.27.14,2.73,2.73,0,0,1,1.1,1.34.71.71,0,0,0,.66.45.77.77,0,0,0,.25,0,.69.69,0,0,0,.4-.9,4.13,4.13,0,0,0-1.33-1.8V43.58a2.19,2.19,0,0,0-1.73-2.13l-3.13-.67a2.13,2.13,0,0,0-2,.59l-1.32,1.32c-1.05-.09-2.15-.14-3.29-.14s-2.24.05-3.29.14L35,41.37a2.16,2.16,0,0,0-2-.59l-3.13.67a2.18,2.18,0,0,0-1.72,2.13V44.9a4.13,4.13,0,0,0-1.34,1.8,40.7,40.7,0,0,0-2.41,9.57c-.25,2.36.2,4.14,1.33,5.29a2.49,2.49,0,0,0,1.87.76,2.53,2.53,0,0,0,1.84-.83c2.54-2.8,4.21-3.8,4.91-3.8h10.5c.71,0,2.37,1,4.91,3.8a2.55,2.55,0,0,0,1.85.83h0a2.49,2.49,0,0,0,1.81-.76C54.59,60.41,55,58.63,54.79,56.27Zm-9.6-13.91a.75.75,0,0,1,.71-.21l3.13.66a.79.79,0,0,1,.62.77v.58a20.56,20.56,0,0,0-5-1.27ZM29.54,43.58a.79.79,0,0,1,.61-.77l3.13-.66a.77.77,0,0,1,.72.21l.52.53a20.33,20.33,0,0,0-5,1.27Z" transform="translate(-10.49 -2.08)"/><path class="cls-1" d="M53.05,48.59l0-.14a.7.7,0,1,0-1.33.45l0,.13a.71.71,0,0,0,.67.48.6.6,0,0,0,.22,0A.7.7,0,0,0,53.05,48.59Z" transform="translate(-10.49 -2.08)"/><path class="cls-1" d="M43.29,50.44A2.66,2.66,0,1,0,46,53.1,2.66,2.66,0,0,0,43.29,50.44Zm0,3.92a1.26,1.26,0,1,1,1.26-1.26A1.26,1.26,0,0,1,43.29,54.36Z" transform="translate(-10.49 -2.08)"/><path class="cls-1" d="M37,52.4h-.63v-.63a.7.7,0,1,0-1.4,0v.63h-.63a.7.7,0,0,0,0,1.4h.63v.63a.7.7,0,1,0,1.4,0V53.8H37a.7.7,0,1,0,0-1.4Z" transform="translate(-10.49 -2.08)"/><path class="cls-1" d="M31.77,46.24a2.66,2.66,0,1,0,2.66,2.66A2.67,2.67,0,0,0,31.77,46.24Zm0,3.92A1.26,1.26,0,1,1,33,48.9,1.27,1.27,0,0,1,31.77,50.16Z" transform="translate(-10.49 -2.08)"/><path class="cls-1" d="M38.19,47.29h-1a.7.7,0,1,0,0,1.4h1a.7.7,0,0,0,0-1.4Z" transform="translate(-10.49 -2.08)"/><path class="cls-1" d="M42,47.29H41a.7.7,0,1,0,0,1.4h1a.7.7,0,0,0,0-1.4Z" transform="translate(-10.49 -2.08)"/></g></svg>