<?xml version="1.0" encoding="utf-8"?>
<!-- Generator: Adobe Illustrator 25.0.0, SVG Export Plug-In . SVG Version: 6.00 Build 0)  -->
<svg version="1.1" id="Layer_1" xmlns="http://www.w3.org/2000/svg" xmlns:xlink="http://www.w3.org/1999/xlink" x="0px" y="0px"
	 viewBox="0 0 2160 2160" style="enable-background:new 0 0 2160 2160;" xml:space="preserve">
<style type="text/css">
	.st0{fill:#FEFEFE;}
	.st1{fill:#D0282E;}
	.st2{fill:#D0282F;}
	.st3{fill:#D0292E;}
	.st4{fill:#FEFEFD;}
	.st5{fill:#FDFCFB;}
	.st6{fill:#FDFAFA;}
	.st7{fill:#FCFBFA;}
	.st8{fill:#FDFBFA;}
</style>
<path class="st0" d="M1080.3,1287c-354.1,0-708.1-0.1-1062.2,0.5c-16.1,0-18.1-4.4-18-18.8c0.6-126.7,0.6-253.5,0-380.2
	c-0.1-13.6,3.5-16,16.4-16c708.9,0.3,1417.7,0.4,2126.6-0.1c15.1,0,17,3.9,17,17.7c-0.6,126.7-0.7,253.5,0.1,380.2
	c0.1,14.8-3.3,17.2-17.5,17.1C1788.4,1286.9,1434.3,1287,1080.3,1287z"/>
<path class="st1" d="M1214.7,974.6c22.5,0,45.2-1.8,67.5,0.4c51,5,85.9,44,88.7,96.4c2.7,50.1-30.6,95.8-78.5,106.1
	c-46.7,9.9-94.1,3.2-141.2,4.7c-4.3,0.1-8.8-0.6-8.4-6.5c0.2-4.1,3-6.3,6.9-6.4c22.2-0.5,23.2-15.4,23-32.2
	c-0.4-41.5-0.2-83-0.1-124.5c0-14-2.5-25.5-20.1-25.9c-5.1-0.1-10.5-1.2-9.3-8.2c1-5.4,6-5.1,10.1-5.1c20.4-0.1,40.9,0,61.3,0
	C1214.7,973.7,1214.7,974.1,1214.7,974.6z"/>
<path class="st1" d="M395.9,974.1c20.4,0,41-1.5,61.2,0.4c27.8,2.6,42.9,17.2,48.1,42.5c4.9,24.2-3.9,46.6-27.9,57.9
	c-17,8.1-13.9,13.8-4.4,25.1c14,16.7,26.5,34.6,39.8,52c4.3,5.6,9.6,10,15.8,13.8c5.2,3.2,17.1,1.2,13.6,11.8
	c-2.8,8.6-12.3,2.9-18.7,4.1c-29.1,5.6-49-5.2-63.3-31.5c-10-18.4-24.6-34.2-36.7-51.6c-5-7.3-11.1-11-19.5-8.7
	c-9,2.5-4.8,10.5-5,16.1c-0.6,11.9,0.3,24-0.3,35.9c-0.7,14.6,3.2,25,19.6,26.7c5.1,0.5,10.4,1.3,9.3,8.4c-1,5.9-6.1,4.6-10,4.7
	c-25.4,0.1-50.8,0.2-76.2,0c-4.4,0-10.9,1.9-11.1-5.8c-0.2-5.4,4.1-6.8,8.6-7.1c17.9-1.1,21.1-13,21-27.9
	c-0.2-42.9-0.1-85.9,0-128.8c0-14.1-3.3-25.2-20.3-26.4c-4.2-0.3-9.2-1-9.3-6.5c-0.1-7.2,6-6.7,10.8-6.7c18.3-0.1,36.7-0.1,55-0.1
	C395.9,973,395.9,973.6,395.9,974.1z"/>
<path class="st2" d="M655.7,1186.7c-58.7,0.2-104.9-47.5-105.1-108.5c-0.2-62.4,44.4-110.5,102.9-111.1
	c62.8-0.6,108.5,45.5,108.5,109.6C762,1138.8,715.9,1186.4,655.7,1186.7z"/>
<path class="st1" d="M209,1084c0,19,0.2,35.2-0.1,51.4c-0.3,16.4,0.2,31.9,22.3,33.2c4.1,0.2,6.4,2.3,6.5,6.6c0.2,6-3.8,6.6-8.3,6.6
	c-26.8,0-53.6,0-80.4-0.1c-4.1,0-9,0.4-9.2-5.8c-0.2-5.4,3.6-7.3,8.2-7.5c19.4-0.9,22-13.8,21.9-29.3c-0.2-41.5-0.2-83.1,0.1-124.6
	c0.1-15.7-2.6-28.3-21.9-29.2c-4.3-0.2-8.5-2-7.4-7.8c0.8-4.4,4.7-5.1,8.1-5c38,1.1,76.4-4.5,113.9,4.2c33.9,7.8,51,39.9,41.5,73.7
	c-9.1,32.4-44.8,51.7-77,41.4C221.9,1090.3,217,1087.6,209,1084z"/>
<path class="st1" d="M1560.9,1181.8c-11.3,0-22.6,0.1-33.8,0c-4,0-9,0.6-9.5-5.4c-0.3-3.9,1.9-6.5,6-7.3c9.4-1.8,17.6-6.1,12.6-16.7
	c-5.1-10.8-3.9-27.9-24.1-26.5c-18.3,1.2-36.8,1.8-54.9,0c-18-1.8-20.9,10.3-24.9,22.2c-4.3,12.8,3,18.2,14.3,20.2
	c5.5,1,6.8,4.3,6,9c-0.8,4.7-4.8,4.4-8.2,4.4c-16.9,0.1-33.8,0.1-50.8,0c-3.4,0-7.4,0.4-8.6-4c-1.4-5,1-8,5.8-9.2
	c13.6-3.3,18-14.9,22.7-25.9c22.7-52.9,45.2-105.9,67.8-158.8c2.6-6.2,2.5-15.7,11.1-16.1c10.3-0.5,10.1,10.2,13.1,16.7
	c22.9,50.5,45.4,101.3,68.3,151.8c6,13.2,10,28.4,26.9,32.9c4.3,1.2,4.9,4.6,4.4,8.3c-0.7,4.7-4.6,4.5-8,4.6
	C1584.9,1181.8,1572.9,1181.8,1560.9,1181.8z"/>
<path class="st1" d="M1963.7,1181.8c-11.3,0-22.6,0.1-33.8-0.1c-4-0.1-9.1,1.2-10.3-4.5c-1.1-5.2,2.2-7.4,7-8.4
	c10.1-2.1,15.8-8.2,10.8-18c-4.9-9.6-3.4-25.2-21-24.8c-20.4,0.5-40.9,1.1-61.3-0.1c-16.7-1-16.9,12.1-20.8,21.6
	c-4.3,10.4,0.1,17.7,11.5,20.1c5.3,1.1,9.8,3,8.2,9.6c-1.3,5.7-6.4,4.4-10.4,4.4c-15.5,0.2-31,0.2-46.5,0c-3.9,0-9,1.4-10.5-4.2
	c-1.4-4.9,1-7.9,5.9-9.1c14.4-3.7,18.6-16.3,23.6-27.8c22.7-52.9,45.1-106,67.7-159c2.3-5.5,2.2-13.8,10.3-14.1
	c8-0.3,8.9,7.6,11.4,13.2c22.4,50,44.7,100.1,67.4,150c6.8,15,10.7,32.6,29.6,38.7c4.1,1.3,4.7,4.9,3.7,8.6
	c-1.2,4.6-5.4,3.8-8.7,3.8C1986.3,1181.9,1975,1181.8,1963.7,1181.8z"/>
<path class="st2" d="M937.4,1108.2c-11.1-24-41.9-35.7-69.4-26.9c-7.6,2.4-6.9,7.8-6.9,13.3c-0.1,14.8,0.2,29.6-0.1,44.3
	c-0.3,15.2,1.5,28.6,21,29.9c4.9,0.3,7.9,3,7.1,8.2c-0.7,4.7-4.7,4.6-8.1,4.6c-26.8,0.1-53.6,0.1-80.4,0c-4.2,0-8.8,0.3-8.8-6
	c0-5.7,3.8-6.7,8.3-7c17.5-1,21.6-11.7,21.4-27.3c-0.5-43.6-0.4-87.3,0-130.9c0.1-13.9-3.4-23.4-19.2-24.4
	c-4.6-0.3-10.8-0.4-10.4-7.5c0.4-7.1,6.5-6.1,11.2-6.1c50.8-0.1,101.5,0.1,152.3-0.2c9.9-0.1,13.9,3.4,14,13.4
	c0.1,10.5,1.8,21,2.8,31.5c0.4,3.8-0.3,7.1-4.4,8.5c-4.1,1.4-7.1-0.5-8.2-4.2c-8.5-29.8-32.8-28.7-56.4-28.9
	c-42.4-0.3-41.1-0.2-42.8,41.6c-0.9,21.3,4.9,29.9,26.6,26.4c8.3-1.3,16.9-0.3,25.3-0.4c13.1-0.1,19-7.3,19.9-19.7
	c0.3-3.7,2.2-6.9,6.4-7c3.2-0.1,5.1,2.4,5.1,5.4c0.1,23.3,0.1,46.7,0.1,70C941.8,1108.7,939.6,1108.5,937.4,1108.2z"/>
<path class="st2" d="M1711.3,1076c0,22.5,0,45,0,67.5c0,13.1,3.3,23.8,19.1,25c4.9,0.4,10.7,0.4,10.2,7.5c-0.5,7.5-6.9,5.7-11.4,5.7
	c-25.4,0.2-50.8,0.1-76.1,0c-3.9,0-9,1.3-10-4.7c-1.1-7,3.9-8,9.1-8.5c16.9-1.8,19-13.4,19-27.3c0-40.8,1.1-81.6,0.4-122.4
	c-0.2-8.8,8.1-23.9-8.3-25.9c-16.1-2-34-5.9-46.6,11.2c-5,6.8-3.2,23-13.7,19.8c-11.4-3.5-1.3-17.3-3.1-26.3
	c-4.6-22.9,7.2-26.1,27-25.5c45.8,1.3,91.6,1,137.4,0.1c14.8-0.3,20.8,4.4,19,18.9c-0.3,2.8,0.5,5.7,0.1,8.4
	c-1.1,8.4,6.1,21.1-4.5,24.2c-8.7,2.5-7.2-11.2-11.3-17.2c-8.9-12.9-38-20.3-51.7-12.8c-6.8,3.7-4.7,9.6-4.7,14.8
	c-0.2,22.5-0.1,45-0.1,67.5C1711.2,1076,1711.2,1076,1711.3,1076z"/>
<path class="st3" d="M1028.1,1077.6c0-21.8-0.2-43.6,0.1-65.3c0.2-14-2.5-25.2-19.6-26.6c-4.5-0.4-10.8-0.8-9.6-8.1
	c0.9-5.6,6-5,10.1-5c25.3-0.1,50.7-0.2,76,0c4.7,0,11.1-0.7,11.5,6c0.4,6.6-6.1,7.1-10.7,7.6c-15,1.7-17.4,11.7-17.4,24.1
	c0.1,44.3,0.3,88.5-0.1,132.8c-0.1,13.7,3.3,23.5,18.5,25.6c5,0.7,10.7,1.3,9.9,8.1c-0.9,7.2-7.3,5.1-11.8,5.2
	c-25.3,0.2-50.7,0.1-76,0c-4.7,0-10.5,1.1-10.3-6.6c0.1-5.8,4.6-6.2,8.8-6.5c17.9-1.2,21.1-12.7,20.7-27.8
	C1027.6,1119.7,1028.1,1098.7,1028.1,1077.6z"/>
<path class="st4" d="M1212,1075.2c0-21.8,0.5-43.6-0.2-65.3c-0.4-11.6,4.1-15.9,15.4-17.5c39.1-5.3,72.5,9.1,88.4,39.2
	c17.6,33.3,12.8,80.6-10.9,107c-19,21.1-56.9,29.9-83.8,20.5c-9.2-3.2-8.8-9.3-8.8-16.5C1212.1,1120.2,1212,1097.7,1212,1075.2z"/>
<path class="st5" d="M419.1,991.8c18.5-0.2,31.9,5.7,39.2,21.8c7.1,15.7,4.6,30.3-6.2,43.1c-12.3,14.6-29.6,14.4-46.6,13.6
	c-8-0.4-7-7.4-7-12.8c-0.1-14.7,0.8-29.5-0.3-44.1C397,996.2,405.1,990.4,419.1,991.8z"/>
<path class="st0" d="M716.3,1074.8c0.7,22.8-1.9,45-13.8,65c-10.7,18-25.9,29.9-48,28.8c-22.3-1.2-39.3-12.7-47.6-33
	c-15.1-37.2-15.3-75.4-0.9-112.8c9.5-24.5,30.2-37.8,53.6-37c26.1,1,40.2,17.4,49.3,39.6C715.6,1041.1,716.9,1057.8,716.3,1074.8z"
	/>
<path class="st6" d="M208.7,1031.3c0-4.9,0-9.8,0-14.7c0.2-24.3,12.3-32.1,34.9-21.7c17.3,7.9,21.4,23.4,19.8,40.5
	c-1.6,17.2-9.2,31.3-27.1,36.2c-18.8,5.2-27.4-2-27.6-21.3C208.6,1043.9,208.7,1037.6,208.7,1031.3z"/>
<path class="st7" d="M1482.5,1028.3c12.5,28.4,22.9,51.8,34,76.9c-23,0-44.1,0-67.1,0C1460.1,1080.2,1470.2,1056.8,1482.5,1028.3z"
	/>
<path class="st8" d="M1851.1,1105.3c11.1-25.7,21-48.7,33.1-77c12.4,27.9,22.9,51.5,34.1,77
	C1895.3,1105.3,1874.6,1105.3,1851.1,1105.3z"/>
</svg>
