<svg id="web_mobile" data-name="web &amp; mobile" xmlns="http://www.w3.org/2000/svg" viewBox="0 0 46.26 53.09"><defs><style>.cls-1{fill:#231f20;}</style></defs><title>Web&amp;amp;Mobile</title><g id="phone"><path class="cls-1" d="M50.85,5.46H27.2C25,5.46,23.25,7.51,23.25,10v5.05a13.48,13.48,0,0,1,1.5-.1h.18V10A2.46,2.46,0,0,1,27.2,7.41H50.85A2.46,2.46,0,0,1,53.12,10V54.74a2.46,2.46,0,0,1-2.27,2.62H27.2a2.46,2.46,0,0,1-2.27-2.62V49.81h-.28a10.2,10.2,0,0,1-1.4-.1v5c0,2.52,1.77,4.57,3.95,4.57H50.85c2.19,0,4-2.05,4-4.57V10C54.81,7.51,53,5.46,50.85,5.46Z"/><path class="cls-1" d="M38.74,8.6a.5.5,0,1,0-.49-.49A.49.49,0,0,0,38.74,8.6Z"/><path class="cls-1" d="M36.88,10.6H40.6a.5.5,0,0,0,0-1H36.88a.5.5,0,0,0,0,1Z"/><path class="cls-1" d="M35.22,10.49a.39.39,0,1,0-.38-.38A.38.38,0,0,0,35.22,10.49Z"/><path class="cls-1" d="M38.8,50.94a2.66,2.66,0,1,0,2.66,2.66A2.67,2.67,0,0,0,38.8,50.94Zm0,4.45a1.79,1.79,0,1,1,1.8-1.79A1.79,1.79,0,0,1,38.8,55.39Z"/><path class="cls-1" d="M51.39,11.72H26.1a.48.48,0,0,0-.48.48v2.69a9.31,9.31,0,0,1,1,.12V12.69H50.91V49.18H26.58V49l-1,.12v.54a.48.48,0,0,0,.48.48H51.39a.49.49,0,0,0,.48-.48V12.2A.49.49,0,0,0,51.39,11.72Z"/></g><g id="Layer_20" data-name="Layer 20"><path class="cls-1" d="M40.05,28.28h0a15.45,15.45,0,0,0-1.68-4.18,15.7,15.7,0,1,0-21.5,21.46h0A15.71,15.71,0,0,0,39,38.66a15.68,15.68,0,0,0,1-10.38Zm-5.68-7a13.41,13.41,0,0,1,2.1,2.29l-1.23-.31a1.22,1.22,0,0,0-1.12.29,1.43,1.43,0,0,0-.47,1.13.08.08,0,0,1,0,.05l-.91.64h0l-1.28-.79a.32.32,0,0,1-.15-.35l.29-1.33a.31.31,0,0,1,.28-.25l1.09,0A1.59,1.59,0,0,0,34.37,21.26ZM16.87,42.49l-.19,1.38A14.37,14.37,0,0,1,10.35,32c0-.42,0-.84.05-1.27l.84.15a3.39,3.39,0,0,0,.64.06h.42a2.66,2.66,0,0,1,1.65.58l.64.52a.29.29,0,0,1,.1.18l.08.88a.26.26,0,0,1-.2.29A1.59,1.59,0,0,0,13.31,35l0,3.07a1.8,1.8,0,0,0,.31,1l1,1.44A4,4,0,0,0,16.56,42,.51.51,0,0,1,16.87,42.49Zm4,3.33a14.68,14.68,0,0,1-3-1.24l.25-1.9a1.87,1.87,0,0,0-1.13-2,2.79,2.79,0,0,1-1.3-1l-1-1.44a.31.31,0,0,1-.06-.16l0-3.07a.27.27,0,0,1,.21-.27A1.6,1.6,0,0,0,16,33l-.09-.87a1.63,1.63,0,0,0-.6-1.13l-.64-.51a3.83,3.83,0,0,0-2.39-.86h-.42a2.12,2.12,0,0,1-.44,0l-.86-.15a14.3,14.3,0,0,1,5-8.41,14.55,14.55,0,0,1,6.37-3,3,3,0,0,1,.8,1.19l0,.1a3.81,3.81,0,0,1,.17.76l0,.29a3.15,3.15,0,0,1-.21,1.55l-.34.83A2.91,2.91,0,0,1,21.34,24l-.42.29a1.57,1.57,0,0,0-.66,1.36l.06,1.24a.16.16,0,0,1-.05.13.17.17,0,0,1-.12,0A.16.16,0,0,1,20,27l-.52-1a1.43,1.43,0,0,0-.86-.74l-1.84-.56a2,2,0,0,0-1.46.13l-.44.21a2.39,2.39,0,0,0-1.2,2.63,2.33,2.33,0,0,0,.58,1.11L15.48,30l.19.23.82,1.1a1.85,1.85,0,0,0,1.48.76h2.24a.62.62,0,0,1,.55.35,1.94,1.94,0,0,0,1.24,1l.84.19a.65.65,0,0,1,.43.35l.41.8a1.75,1.75,0,0,0,.7.75l1.9,1a.47.47,0,0,1,.09.74l-.72.69a1.86,1.86,0,0,0-.46.72l-.16.45a.49.49,0,0,1-.27.31l-.77.34a1.9,1.9,0,0,0-1.07,1.75.57.57,0,0,1-.06.25Zm3.9.53a14.38,14.38,0,0,1-2.63-.24L24,42.39a2,2,0,0,0,.2-.87.55.55,0,0,1,.3-.5l.77-.34a1.85,1.85,0,0,0,1-1.08l.15-.46a.57.57,0,0,1,.12-.18l.72-.69a1.89,1.89,0,0,0-.35-3l-1.9-1a.47.47,0,0,1-.18-.19l-.4-.8a1.93,1.93,0,0,0-1.27-1l-.83-.2a.65.65,0,0,1-.43-.33,1.87,1.87,0,0,0-1.63-1H18a.65.65,0,0,1-.51-.25l-.81-1.1L16.37,29l-1.2-1.3a.93.93,0,0,1-.24-.46,1,1,0,0,1,.5-1.09l.44-.21a.83.83,0,0,1,.6-.05l1.84.55a.27.27,0,0,1,.1.08l.52,1.05a1.37,1.37,0,0,0,1.1.79A1.34,1.34,0,0,0,21.14,28a1.61,1.61,0,0,0,.43-1.18l-.06-1.23a.18.18,0,0,1,.07-.15l.43-.29a4.24,4.24,0,0,0,1.53-1.93l.34-.84a4.62,4.62,0,0,0,.32-2.24l0-.3a4.73,4.73,0,0,0-.25-1.1l0-.09a4.17,4.17,0,0,0-.46-.92h0a12.81,12.81,0,0,1,1.39-.07,14.38,14.38,0,0,1,8.35,2.64v.63a.31.31,0,0,1-.29.32l-1.08,0a1.59,1.59,0,0,0-1.47,1.29L30,23.9a1.74,1.74,0,0,0,.74,1.84l1.28.79a1.22,1.22,0,0,0,1.35-.05l.91-.64a1.47,1.47,0,0,0,.59-1.23.06.06,0,0,1,0,0h0l1.4.35.11,0,1,.15a13.54,13.54,0,0,1,1.06,2.44l-1-.26-.11,0-1.06-.19a3.37,3.37,0,0,0-3.12,1.13l-.16.18a3.85,3.85,0,0,0-.93,1.92l-.4,2.2A4.22,4.22,0,0,0,32,34.76,3.61,3.61,0,0,0,34.85,37l.19,0a3.23,3.23,0,0,0,1.6-.2l.67-.26a.27.27,0,0,1,.33.1l.09.12a.32.32,0,0,1,.07.19l0,1.18A14.53,14.53,0,0,1,24.8,46.35ZM38.69,36l-.07-.1a1.52,1.52,0,0,0-1.21-.62,1.37,1.37,0,0,0-.52.1l-.67.25a2,2,0,0,1-1,.13l-.2,0a2.35,2.35,0,0,1-1.85-1.48A2.64,2.64,0,0,1,33,32.75l.4-2.21A2.53,2.53,0,0,1,34,29.3l.16-.18a2.19,2.19,0,0,1,2-.73l1.06.18h0l1.67.43a14.22,14.22,0,0,1-.24,7Z"/></g></svg>